<?xml version="1.0" encoding="UTF-8"?>
<svg id="Layer_2" data-name="Layer 2" xmlns="http://www.w3.org/2000/svg" viewBox="0 0 129.33 159.08">
  <defs>
    <style>
      .cls-1 {
        fill: #fff;
      }
    </style>
  </defs>
  <g id="Layer_1-2" data-name="Layer 1">
    <path class="cls-1" d="M92.19,69.91c11.32,15.35,9.48,38.91,1.4,55.37-5.47,11.14-17.68,24.08-28.15,30.7-.71.45-5.25,3.1-5.57,3.09-.65-.02-.33-.71-.29-.99,1.16-8.4.65-11.34-4.14-18.39-4.37-6.43-10.02-12.03-12-19.95l-.73,3.05.56,11.75c-15.34-14.91-18.66-41.08-9.63-60.17l2.95-4.45c-.03,9.26,1.04,18.43,1.83,27.64-.68,3.26-4.3,1.02-3.99,5.03.77,10.08,14.5,11.57,22.12,8.76,2.01-.74,6.26-3.89,7.66-3.9,2.08-.02,4.16,2.19,5.95,3.1,7.48,3.78,21.36,2.81,24.1-6.62,1.54-5.29-3.56-3.37-3.89-6.38.98-9.18,2-18.37,1.83-27.63Z"/>
    <path class="cls-1" d="M94.71,23.7l-15.88-5.41,10.83,29.6c-16.22-4.38-34.32-4.52-50.54,0,6.05-15.49,10.81-32.6,23.82-43.87C64.43,2.73,67.64-.05,69.56,0c2.33.06,6.32,3.87,8.18,5.46,4.98,4.27,12.28,11.2,16.02,16.47.23.32,1.22,1.51.94,1.77Z"/>
    <path class="cls-1" d="M59.25,50.52c16.2-.79,30.57,1.31,44.02,10.64,1.56,1.08,8.12,5.28,4.77,6.78-8.19-2.48-16.23-5.5-24.76-6.65-12.92-1.75-30.38-1.98-43.09.85-2.88.64-18.99,6.24-19.98,5.93-2.01-.64.89-3.48,1.57-4.12,9.21-8.8,25.09-12.82,37.48-13.43Z"/>
    <path class="cls-1" d="M88.21,103.14c-3.35,6.07-13.61,3.96-18.53,1.01-1.18-.7-4.06-3.53-5.12-3.52-3.65,1.82-6.7,4.44-10.73,5.49-4.04,1.05-10.41,1.54-13.25-2.14l7.9-10.79c4.91-4.4,11.01-4.54,15.77.14,2.98-1.68,5.2-3.87,8.93-3.52,8.09.77,9.3,7.73,13.58,12.42.41.45.77.89,1.44.91Z"/>
    <path class="cls-1" d="M83.88,72.81c.12,6.1-12.54,6.75-13.3,1.9-.68-4.34,10.88-3.14,13.3-1.9Z"/>
    <path class="cls-1" d="M48.78,71.82c2.06-.23,7.91-.5,8.92,1.71,1.97,4.31-8.64,6.33-11.93,1.81-2.18-2.99.35-3.23,3-3.52Z"/>
    <path class="cls-1" d="M117.01,98.5c4.85-.65,6.07,6.78,1.64,7.8-5.92,1.36-7.04-7.07-1.64-7.8Z"/>
    <path class="cls-1" d="M5.29,92.41c3.67-3.96,9.81,2.43,5.32,5.86-4.09,3.12-8.21-2.74-5.32-5.86Z"/>
    <path class="cls-1" d="M3.28,74.68c4.14-.6,6.22,5.23,2.5,7.22-5.66,3.03-8.37-6.37-2.5-7.22Z"/>
    <path class="cls-1" d="M123.13,82.98c5.82-1.3,6.89,7.21,1.35,7.52-4.9.28-5.36-6.63-1.35-7.52Z"/>
    <path class="cls-1" d="M3.65,58.79c4.66-.6,5.28,7.23.26,7.17-4.57-.05-4.44-6.63-.26-7.17Z"/>
    <path class="cls-1" d="M7.24,44c6.04-1.36,5.42,8.02-.08,6.45-3.51-1-2.88-5.79.08-6.45Z"/>
    <path class="cls-1" d="M15.56,30.99c3.93-.75,5.19,5.55,1.64,6.35-4.96,1.12-5.94-5.53-1.64-6.35Z"/>
    <path class="cls-1" d="M125.3,67.46c4.52-1,5.64,5.79,1.28,6.36-3.92.51-5.05-5.53-1.28-6.36Z"/>
    <path class="cls-1" d="M22.62,27.2c-2.29-2.5.61-6.36,3.7-4.6,3.96,2.27-.79,7.78-3.7,4.6Z"/>
    <path class="cls-1" d="M123.13,51.94c4.23-.96,4.85,4.4,2.01,5.26-4.06,1.23-5.45-4.48-2.01-5.26Z"/>
    <path class="cls-1" d="M116.99,38.21c3.43-1.03,4.48,3.65,2.18,4.72-3.67,1.7-5.4-3.75-2.18-4.72Z"/>
    <path class="cls-1" d="M35.76,15.11c3.36-.98,5.06,2.78,2.61,4.41-3.41,2.28-5.6-3.54-2.61-4.41Z"/>
    <path class="cls-1" d="M107.24,26.3c3.39-1.02,3.53,3.72.3,3.18-1.7-.28-1.74-2.75-.3-3.18Z"/>
  </g>
</svg>