<?xml version="1.0" encoding="UTF-8"?>
<svg xmlns="http://www.w3.org/2000/svg" viewBox="0 0 32 32">
  <circle cx="16" cy="16" r="16" fill="#000"/>
  <path fill="#fff" d="M21.4 8.5l-4 6.3c-.2.3.2.6.5.4l3.8-2.5c.2-.1.4 0 .4.2v6.9c0 .3-.4.5-.6.2l-9.9-11.5c-.5-.6-1.3-1-2.1-1h-.4c-1.3 0-2.4 1.1-2.4 2.4v10.2c0 1.3 1.1 2.4 2.4 2.4.9 0 1.7-.5 2.1-1.2l4-6.3c.2-.3-.2-.6-.5-.4l-3.8 2.5c-.2.1-.4 0-.4-.2v-6.9c0-.3.4-.5.6-.2l9.9 11.5c.5.6 1.3 1 2.1 1h.4c1.3 0 2.4-1.1 2.4-2.4V10.1c0-1.3-1.1-2.4-2.4-2.4-.9 0-1.7.5-2.1 1.2z"/>
</svg>
