<?xml version="1.0" encoding="UTF-8"?>
<svg xmlns="http://www.w3.org/2000/svg" viewBox="0 0 32 32">
  <defs>
    <linearGradient id="sage-bg" x1="0%" y1="0%" x2="100%" y2="100%">
      <stop offset="0%" style="stop-color:#1a1a2e"/>
      <stop offset="100%" style="stop-color:#0f0f1a"/>
    </linearGradient>
    <linearGradient id="sage-glow" x1="0%" y1="0%" x2="100%" y2="100%">
      <stop offset="0%" style="stop-color:#10b981"/>
      <stop offset="50%" style="stop-color:#34d399"/>
      <stop offset="100%" style="stop-color:#6ee7b7"/>
    </linearGradient>
  </defs>
  <!-- Dark background with subtle glow ring -->
  <circle cx="16" cy="16" r="16" fill="url(#sage-bg)"/>
  <circle cx="16" cy="16" r="15" fill="none" stroke="url(#sage-glow)" stroke-width="0.5" opacity="0.6"/>
  <!-- BitSage Wizard with emerald glow -->
  <g transform="translate(7, 5) scale(0.14)">
    <path fill="url(#sage-glow)" d="M92.19,69.91c11.32,15.35,9.48,38.91,1.4,55.37-5.47,11.14-17.68,24.08-28.15,30.7-.71.45-5.25,3.1-5.57,3.09-.65-.02-.33-.71-.29-.99,1.16-8.4.65-11.34-4.14-18.39-4.37-6.43-10.02-12.03-12-19.95l-.73,3.05.56,11.75c-15.34-14.91-18.66-41.08-9.63-60.17l2.95-4.45c-.03,9.26,1.04,18.43,1.83,27.64-.68,3.26-4.3,1.02-3.99,5.03.77,10.08,14.5,11.57,22.12,8.76,2.01-.74,6.26-3.89,7.66-3.9,2.08-.02,4.16,2.19,5.95,3.1,7.48,3.78,21.36,2.81,24.1-6.62,1.54-5.29-3.56-3.37-3.89-6.38.98-9.18,2-18.37,1.83-27.63Z"/>
    <path fill="url(#sage-glow)" d="M94.71,23.7l-15.88-5.41,10.83,29.6c-16.22-4.38-34.32-4.52-50.54,0,6.05-15.49,10.81-32.6,23.82-43.87C64.43,2.73,67.64-.05,69.56,0c2.33.06,6.32,3.87,8.18,5.46,4.98,4.27,12.28,11.2,16.02,16.47.23.32,1.22,1.51.94,1.77Z"/>
    <path fill="url(#sage-glow)" d="M59.25,50.52c16.2-.79,30.57,1.31,44.02,10.64,1.56,1.08,8.12,5.28,4.77,6.78-8.19-2.48-16.23-5.5-24.76-6.65-12.92-1.75-30.38-1.98-43.09.85-2.88.64-18.99,6.24-19.98,5.93-2.01-.64.89-3.48,1.57-4.12,9.21-8.8,25.09-12.82,37.48-13.43Z"/>
    <path fill="url(#sage-glow)" d="M88.21,103.14c-3.35,6.07-13.61,3.96-18.53,1.01-1.18-.7-4.06-3.53-5.12-3.52-3.65,1.82-6.7,4.44-10.73,5.49-4.04,1.05-10.41,1.54-13.25-2.14l7.9-10.79c4.91-4.4,11.01-4.54,15.77.14,2.98-1.68,5.2-3.87,8.93-3.52,8.09.77,9.3,7.73,13.58,12.42.41.45.77.89,1.44.91Z"/>
    <path fill="url(#sage-glow)" d="M83.88,72.81c.12,6.1-12.54,6.75-13.3,1.9-.68-4.34,10.88-3.14,13.3-1.9Z"/>
    <path fill="url(#sage-glow)" d="M48.78,71.82c2.06-.23,7.91-.5,8.92,1.71,1.97,4.31-8.64,6.33-11.93,1.81-2.18-2.99.35-3.23,3-3.52Z"/>
  </g>
  <!-- Subtle sparkle -->
  <circle cx="24" cy="8" r="1" fill="#34d399" opacity="0.8"/>
  <circle cx="26" cy="10" r="0.5" fill="#6ee7b7" opacity="0.6"/>
</svg>
