<?xml version="1.0" encoding="UTF-8"?>
<svg xmlns="http://www.w3.org/2000/svg" viewBox="0 0 32 32">
  <defs>
    <linearGradient id="sol-gradient" x1="0%" y1="0%" x2="100%" y2="100%">
      <stop offset="0%" style="stop-color:#9945ff"/>
      <stop offset="50%" style="stop-color:#14f195"/>
      <stop offset="100%" style="stop-color:#00c2ff"/>
    </linearGradient>
  </defs>
  <circle cx="16" cy="16" r="16" fill="#000"/>
  <g transform="translate(6, 8)">
    <path fill="url(#sol-gradient)" d="M3.3 12.3c.1-.1.3-.2.5-.2h15.5c.3 0 .5.4.3.6l-3.2 3.2c-.1.1-.3.2-.5.2H.4c-.3 0-.5-.4-.3-.6l3.2-3.2z"/>
    <path fill="url(#sol-gradient)" d="M3.3.2C3.4.1 3.6 0 3.8 0h15.5c.3 0 .5.4.3.6l-3.2 3.2c-.1.1-.3.2-.5.2H.4c-.3 0-.5-.4-.3-.6L3.3.2z"/>
    <path fill="url(#sol-gradient)" d="M16.4 6.2c-.1-.1-.3-.2-.5-.2H.4c-.3 0-.5.4-.3.6l3.2 3.2c.1.1.3.2.5.2h15.5c.3 0 .5-.4.3-.6l-3.2-3.2z"/>
  </g>
</svg>
