<?xml version="1.0" encoding="UTF-8"?>
<svg xmlns="http://www.w3.org/2000/svg" viewBox="0 0 32 32">
  <!-- Starknet deep blue background -->
  <circle cx="16" cy="16" r="16" fill="#29296e"/>
  <!-- Star sparkle -->
  <path fill="#fff" d="M22 8l.8 1.6 1.7.2-1.2 1.2.3 1.7-1.6-.8-1.5.8.3-1.7-1.3-1.2 1.8-.2z"/>
  <!-- White flowing wave -->
  <path fill="#fff" d="M4 16c3-4 7-6 12-6s9 2 12 6c-3-2-7-3-12-3s-9 1-12 3z"/>
  <!-- Orange accent wave -->
  <path fill="#ec4a26" d="M4 18c3 2 7 3 12 3s9-1 12-3c-3 4-7 6-12 6s-9-2-12-6z"/>
  <!-- Small dot -->
  <circle cx="7" cy="22" r="1.2" fill="#fff"/>
</svg>
