<?xml version="1.0" encoding="UTF-8"?>
<svg xmlns="http://www.w3.org/2000/svg" viewBox="0 0 32 32">
  <circle cx="16" cy="16" r="16" fill="#2775ca"/>
  <path fill="#fff" d="M16 6c5.5 0 10 4.5 10 10s-4.5 10-10 10S6 21.5 6 16 10.5 6 16 6zm0-2C9.4 4 4 9.4 4 16s5.4 12 12 12 12-5.4 12-12S22.6 4 16 4z"/>
  <path fill="#fff" d="M18.1 17.3c0-1.3-1-1.8-3-2.1-1.4-.2-1.7-.5-1.7-1.1 0-.5.4-.9 1.4-.9.9 0 1.3.3 1.5.9.1.2.2.3.4.3h.9c.2 0 .4-.2.3-.4-.2-1-1-1.8-2.2-2v-1c0-.2-.2-.4-.4-.4h-.8c-.2 0-.4.2-.4.4v1c-1.4.2-2.3 1.1-2.3 2.3 0 1.4 1 1.9 3 2.2 1.3.2 1.7.5 1.7 1.1 0 .7-.6 1.1-1.5 1.1-1.1 0-1.5-.5-1.7-1-.1-.2-.2-.3-.4-.3h-.9c-.2 0-.4.2-.3.4.3 1.1 1.1 1.8 2.4 2.1v1c0 .2.2.4.4.4h.8c.2 0 .4-.2.4-.4v-1c1.5-.3 2.4-1.2 2.4-2.6z"/>
</svg>
